<svg width="128" height="128" viewBox="0 0 128 128" fill="none" xmlns="http://www.w3.org/2000/svg">
<rect width="128" height="128" fill="#DCE1E4"/>
<path d="M98.3561 62.0113V45.849L81.7952 45.8941V38.9417H105.454L105.5 62.0113H98.3561Z" fill="#2A2A2A"/>
<path d="M57.6381 87.909H24.1145V81.3967H57.6381V87.909Z" fill="#2A2A2A"/>
<path d="M81.2124 89.0582C74.8488 89.0582 69.1413 85.7382 65.9923 80.5028C64.4178 77.8851 63.6306 75.0759 63.6306 71.9474V42.5782H70.3221V58.4759C73.2743 56.1136 77.2106 54.7728 81.2124 54.7728C87.576 54.7728 93.2835 58.029 96.4325 63.3282C98.007 65.9459 98.7942 68.819 98.7942 71.9474C98.7942 78.1405 95.4484 83.6951 90.0689 86.7597C87.3792 88.292 84.427 89.0582 81.2124 89.0582ZM70.3221 71.9474C70.3221 77.6936 75.308 82.5459 81.2124 82.5459C87.1167 82.5459 92.1026 77.6936 92.1026 71.9474C92.1026 66.1374 87.1167 61.2851 81.2124 61.2851C75.308 61.2851 70.3221 66.1374 70.3221 71.9474Z" fill="#2A2A2A"/>
<path d="M22.5 65.6267V52.5382L29.1916 46.0259H56.0236V52.5382H29.1916V59.0505H56.0236V72.139L49.332 78.6513H22.5V72.139H49.332V65.6267H22.5Z" fill="#2A2A2A"/>
</svg>
