<svg width="128" height="128" viewBox="0 0 128 128" fill="none" xmlns="http://www.w3.org/2000/svg">
<rect width="128" height="128" fill="#2A2A2A"/>
<path d="M96.7004 62.055V46.2481L80.9376 46.2923V39.4927H103.456L103.5 62.055H96.7004Z" fill="#DCE1E4"/>
<path d="M57.9447 87.3833H26.0367V81.0142H57.9447V87.3833Z" fill="#DCE1E4"/>
<path d="M80.3829 88.5072C74.326 88.5072 68.8935 85.2602 65.8963 80.14C64.3977 77.5798 63.6484 74.8324 63.6484 71.7727V43.0493H70.0175V58.5974C72.8274 56.287 76.5739 54.9758 80.3829 54.9758C86.4398 54.9758 91.8723 58.1603 94.8695 63.343C96.3681 65.9031 97.1174 68.7131 97.1174 71.7727C97.1174 77.8296 93.9328 83.2621 88.8126 86.2593C86.2525 87.7579 83.4426 88.5072 80.3829 88.5072ZM70.0175 71.7727C70.0175 77.3925 74.7631 82.1381 80.3829 82.1381C86.0027 82.1381 90.7483 77.3925 90.7483 71.7727C90.7483 66.0905 86.0027 61.3449 80.3829 61.3449C74.7631 61.3449 70.0175 66.0905 70.0175 71.7727Z" fill="#DCE1E4"/>
<path d="M24.5 65.5909V52.7903L30.8691 46.4212H56.408V52.7903H30.8691V59.1594H56.408V71.9601L50.0389 78.3292H24.5V71.9601H50.0389V65.5909H24.5Z" fill="#DCE1E4"/>
</svg>
