<svg width="358" height="60" viewBox="0 0 358 60" fill="none" xmlns="http://www.w3.org/2000/svg">
<path d="M6.612 6.768V19.824H36.052V39.472L29.524 46H1.684V39.472H29.524V26.416H0.0200002V6.768L6.612 0.239998H34.388V6.768H6.612ZM43.0825 46V39.472H56.1385V19.824H46.3465V13.296H72.5225V19.824H62.7305V39.472H75.7865V46H43.0825ZM56.1385 6.768V0.239998H62.7305V6.768H56.1385ZM82.8325 46V39.472H95.8885V10.032H82.8325V3.504H102.417V39.472H115.537V46H82.8325ZM122.583 46V13.296H129.111V36.72L148.759 17.072V13.296H155.287V19.824L129.111 46H122.583ZM188.445 32.944H162.333V26.352H188.445V19.824H162.333V13.296H188.445L195.037 19.824V46H188.445V32.944ZM202.083 0.175999H231.523V19.824H238.051V39.408L231.523 46H202.083V0.175999ZM208.611 26.352V39.408H231.523V26.352H208.611ZM224.995 6.704H208.611V19.824H224.995V6.704ZM245.083 59.12V52.528H271.259V46H245.083V13.296H251.611V39.472H271.259V13.296H277.787V52.528L271.259 59.12H245.083ZM284.833 46V0.239998H291.361V13.296H317.537V19.824H291.361V46H284.833ZM357.351 46H324.583V13.296H357.351V19.824H331.175V26.352H357.351V32.944H331.175V39.472H357.351V46Z" fill="#2A2A2A"/>
</svg>
